<svg width="1900" height="900" xmlns="http://www.w3.org/2000/svg"><rect x="10" y="10" width="430" height="110" style="fill: orange;"></rect><rect x="490" y="10" width="645" height="165" style="fill: orange;"></rect><rect x="10" y="210" width="430" height="110" style="fill: orange;"></rect><text style="fill: black; font-size: 14px;" dy=".35em" x="20" y="20">type : "aws_db_subnet_group"</text><text style="fill: black; font-size: 14px;" dy=".35em" x="500" y="20">type : "aws_route53_zone"</text><text style="fill: black; font-size: 14px;" dy=".35em" x="20" y="220">type : "aws_vpc"</text><text style="fill: black; font-size: 14px;" dy=".35em" x="20" y="40">name : "rds_subnet"</text><text style="fill: black; font-size: 14px;" dy=".35em" x="500" y="40">name : "publicdns"</text><text style="fill: black; font-size: 14px;" dy=".35em" x="20" y="240">name : "vpc_main"</text><rect x="20" y="60" width="200" height="40" style="fill: red;"></rect><rect x="235" y="60" width="200" height="40" style="fill: red;"></rect><text style="fill: black; font-size: 14px;" dy=".35em" x="30" y="70">type : "aws_subnet"</text><text style="fill: black; font-size: 14px;" dy=".35em" x="245" y="70">type : "aws_subnet"</text><text style="fill: black; font-size: 14px;" dy=".35em" x="30" y="90">name : "webservers-a"</text><text style="fill: black; font-size: 14px;" dy=".35em" x="245" y="90">name : "webservers-b"</text><rect x="500" y="60" width="200" height="40" style="fill: red;"></rect><rect x="715" y="60" width="200" height="40" style="fill: red;"></rect><rect x="930" y="60" width="200" height="40" style="fill: red;"></rect><text style="fill: black; font-size: 14px;" dy=".35em" x="510" y="70">type : "aws_route53_record"</text><text style="fill: black; font-size: 14px;" dy=".35em" x="725" y="70">type : "aws_route53_record"</text><text style="fill: black; font-size: 14px;" dy=".35em" x="940" y="70">type : "aws_route53_record"</text><text style="fill: black; font-size: 14px;" dy=".35em" x="510" y="90">name : "www-a"</text><text style="fill: black; font-size: 14px;" dy=".35em" x="725" y="90">name : "www-b"</text><text style="fill: black; font-size: 14px;" dy=".35em" x="940" y="90">name : "www"</text><rect x="20" y="260" width="200" height="40" style="fill: red;"></rect><rect x="235" y="260" width="200" height="40" style="fill: red;"></rect><text style="fill: black; font-size: 14px;" dy=".35em" x="30" y="270">type : "aws_internet_gateway"</text><text style="fill: black; font-size: 14px;" dy=".35em" x="245" y="270">type : "aws_route"</text><text style="fill: black; font-size: 14px;" dy=".35em" x="30" y="290">name : "default"</text><text style="fill: black; font-size: 14px;" dy=".35em" x="245" y="290">name : "wan_access"</text></svg>