<svg width="1900" height="900" xmlns="http://www.w3.org/2000/svg"><defs><marker id="arrow" viewBox="0,0,12,12" refX="6" refY="6" markerWidth="12" markerHeight="12" orient="auto-start-reverse"><path d="M2,2 L10,6 L2,10 L6,6 L2,2" stroke="black"></path></marker></defs><rect x="450" y="205" width="430" height="95" style="fill: orange;"></rect><rect x="10" y="640" width="645" height="95" style="fill: orange;"></rect><rect x="10" y="155" width="875" height="165" style="fill: orange;"></rect><rect x="440" y="10" width="860" height="95" style="fill: orange;"></rect><rect x="1315" y="10" width="200" height="40" style="fill: orange;"></rect><text style="fill: black; font-size: 14px;" dy=".35em" x="460" y="215">type : "aws_db_subnet_group"</text><text style="fill: black; font-size: 14px;" dy=".35em" x="20" y="650">type : "aws_route53_zone"</text><text style="fill: black; font-size: 14px;" dy=".35em" x="20" y="165">type : "aws_vpc"</text><text style="fill: black; font-size: 14px;" dy=".35em" x="450" y="20">type : "module"</text><text style="fill: black; font-size: 14px;" dy=".35em" x="1325" y="20">type : "module"</text><text style="fill: black; font-size: 14px;" dy=".35em" x="460" y="235">name : "rds_subnet"</text><text style="fill: black; font-size: 14px;" dy=".35em" x="20" y="670">name : "publicdns"</text><text style="fill: black; font-size: 14px;" dy=".35em" x="20" y="185">name : "vpc_main"</text><text style="fill: black; font-size: 14px;" dy=".35em" x="450" y="40">name : "server"</text><text style="fill: black; font-size: 14px;" dy=".35em" x="1325" y="40">name : "variables"</text><line x1="665" y1="300" x2="110" y2="550" stroke="black" stroke-width="2" marker-start="url(#arrow)"></line><line x1="447.5" y1="320" x2="110" y2="460" stroke="black" stroke-width="2" marker-start="url(#arrow)"></line><line x1="447.5" y1="320" x2="325" y2="460" stroke="black" stroke-width="2" marker-start="url(#arrow)"></line><line x1="447.5" y1="320" x2="540" y2="460" stroke="black" stroke-width="2" marker-start="url(#arrow)"></line><rect x="10" y="10" width="200" height="40" style="fill: purple;"></rect><rect x="225" y="10" width="200" height="40" style="fill: purple;"></rect><rect x="440" y="10" width="860" height="95" style="fill: purple;"></rect><rect x="1315" y="10" width="200" height="40" style="fill: purple;"></rect><text style="fill: black; font-size: 14px;" dy=".35em" x="20" y="20">type : "aws_instance"</text><text style="fill: black; font-size: 14px;" dy=".35em" x="235" y="20">type : "aws_key_pair"</text><text style="fill: black; font-size: 14px;" dy=".35em" x="450" y="20">type : "module"</text><text style="fill: black; font-size: 14px;" dy=".35em" x="1325" y="20">type : "module"</text><text style="fill: black; font-size: 14px;" dy=".35em" x="20" y="40">name : "web"</text><text style="fill: black; font-size: 14px;" dy=".35em" x="235" y="40">name : "sshdeploy"</text><text style="fill: black; font-size: 14px;" dy=".35em" x="450" y="40">name : "server"</text><text style="fill: black; font-size: 14px;" dy=".35em" x="1325" y="40">name : "variables"</text><rect x="10" y="550" width="200" height="40" style="fill: red;"></rect><rect x="10" y="460" width="200" height="40" style="fill: red;"></rect><rect x="10" y="370" width="200" height="40" style="fill: red;"></rect><rect x="225" y="460" width="200" height="40" style="fill: red;"></rect><rect x="225" y="550" width="200" height="40" style="fill: red;"></rect><rect x="440" y="550" width="200" height="40" style="fill: red;"></rect><rect x="440" y="460" width="200" height="40" style="fill: red;"></rect><text style="fill: black; font-size: 14px;" dy=".35em" x="20" y="560">type : "aws_db_instance"</text><text style="fill: black; font-size: 14px;" dy=".35em" x="20" y="470">type : "aws_security_group"</text><text style="fill: black; font-size: 14px;" dy=".35em" x="20" y="380">type : "aws_elb"</text><text style="fill: black; font-size: 14px;" dy=".35em" x="235" y="470">type : "aws_security_group"</text><text style="fill: black; font-size: 14px;" dy=".35em" x="235" y="560">type : "aws_instance"</text><text style="fill: black; font-size: 14px;" dy=".35em" x="450" y="560">type : "aws_instance"</text><text style="fill: black; font-size: 14px;" dy=".35em" x="450" y="470">type : "aws_security_group"</text><text style="fill: black; font-size: 14px;" dy=".35em" x="20" y="580">name : "myawsdb"</text><text style="fill: black; font-size: 14px;" dy=".35em" x="20" y="490">name : "sg_rds"</text><text style="fill: black; font-size: 14px;" dy=".35em" x="20" y="400">name : "http-lb"</text><text style="fill: black; font-size: 14px;" dy=".35em" x="235" y="490">name : "sg_elb"</text><text style="fill: black; font-size: 14px;" dy=".35em" x="235" y="580">name : "www-a"</text><text style="fill: black; font-size: 14px;" dy=".35em" x="450" y="580">name : "www-b"</text><text style="fill: black; font-size: 14px;" dy=".35em" x="450" y="490">name : "sg_www"</text><line x1="110" y1="500" x2="110" y2="550" stroke="black" stroke-width="2" marker-start="url(#arrow)"></line><line x1="210" y1="400" x2="550" y2="710" stroke="black" stroke-width="2" marker-start="url(#arrow)"></line><line x1="305" y1="460" x2="210" y2="375" stroke="black" stroke-width="2" marker-start="url(#arrow)"></line><line x1="225" y1="570" x2="120" y2="690" stroke="black" stroke-width="2" marker-start="url(#arrow)"></line><line x1="305" y1="550" x2="210" y2="375" stroke="black" stroke-width="2" marker-start="url(#arrow)"></line><line x1="425" y1="560" x2="540" y2="500" stroke="black" stroke-width="2" marker-start="url(#arrow)"></line><line x1="440" y1="570" x2="335" y2="690" stroke="black" stroke-width="2" marker-start="url(#arrow)"></line><line x1="520" y1="550" x2="210" y2="375" stroke="black" stroke-width="2" marker-start="url(#arrow)"></line><line x1="540" y1="550" x2="540" y2="500" stroke="black" stroke-width="2" marker-start="url(#arrow)"></line><rect x="460" y="255" width="200" height="40" style="fill: red;"></rect><rect x="675" y="255" width="200" height="40" style="fill: red;"></rect><text style="fill: black; font-size: 14px;" dy=".35em" x="470" y="265">type : "aws_subnet"</text><text style="fill: black; font-size: 14px;" dy=".35em" x="685" y="265">type : "aws_subnet"</text><text style="fill: black; font-size: 14px;" dy=".35em" x="470" y="285">name : "webservers-a"</text><text style="fill: black; font-size: 14px;" dy=".35em" x="685" y="285">name : "webservers-b"</text><line x1="460" y1="275" x2="110" y2="370" stroke="black" stroke-width="2" marker-start="url(#arrow)"></line><line x1="460" y1="275" x2="325" y2="550" stroke="black" stroke-width="2" marker-start="url(#arrow)"></line><line x1="675" y1="275" x2="110" y2="370" stroke="black" stroke-width="2" marker-start="url(#arrow)"></line><line x1="675" y1="275" x2="540" y2="550" stroke="black" stroke-width="2" marker-start="url(#arrow)"></line><rect x="20" y="690" width="200" height="40" style="fill: red;"></rect><rect x="235" y="690" width="200" height="40" style="fill: red;"></rect><rect x="450" y="690" width="200" height="40" style="fill: red;"></rect><text style="fill: black; font-size: 14px;" dy=".35em" x="30" y="700">type : "aws_route53_record"</text><text style="fill: black; font-size: 14px;" dy=".35em" x="245" y="700">type : "aws_route53_record"</text><text style="fill: black; font-size: 14px;" dy=".35em" x="460" y="700">type : "aws_route53_record"</text><text style="fill: black; font-size: 14px;" dy=".35em" x="30" y="720">name : "www-a"</text><text style="fill: black; font-size: 14px;" dy=".35em" x="245" y="720">name : "www-b"</text><text style="fill: black; font-size: 14px;" dy=".35em" x="460" y="720">name : "www"</text><rect x="20" y="205" width="200" height="40" style="fill: red;"></rect><rect x="235" y="205" width="200" height="40" style="fill: red;"></rect><rect x="450" y="205" width="430" height="95" style="fill: red;"></rect><text style="fill: black; font-size: 14px;" dy=".35em" x="30" y="215">type : "aws_internet_gateway"</text><text style="fill: black; font-size: 14px;" dy=".35em" x="245" y="215">type : "aws_route"</text><text style="fill: black; font-size: 14px;" dy=".35em" x="460" y="215">type : "aws_db_subnet_group"</text><text style="fill: black; font-size: 14px;" dy=".35em" x="30" y="235">name : "default"</text><text style="fill: black; font-size: 14px;" dy=".35em" x="245" y="235">name : "wan_access"</text><text style="fill: black; font-size: 14px;" dy=".35em" x="460" y="235">name : "rds_subnet"</text><line x1="220" y1="225" x2="235" y2="225" stroke="black" stroke-width="2" marker-start="url(#arrow)"></line><line x1="665" y1="300" x2="110" y2="550" stroke="black" stroke-width="2" marker-start="url(#arrow)"></line><rect x="460" y="255" width="200" height="40" style="fill: yellow;"></rect><rect x="675" y="255" width="200" height="40" style="fill: yellow;"></rect><text style="fill: black; font-size: 14px;" dy=".35em" x="470" y="265">type : "aws_subnet"</text><text style="fill: black; font-size: 14px;" dy=".35em" x="685" y="265">type : "aws_subnet"</text><text style="fill: black; font-size: 14px;" dy=".35em" x="470" y="285">name : "webservers-a"</text><text style="fill: black; font-size: 14px;" dy=".35em" x="685" y="285">name : "webservers-b"</text><line x1="460" y1="275" x2="110" y2="370" stroke="black" stroke-width="2" marker-start="url(#arrow)"></line><line x1="460" y1="275" x2="325" y2="550" stroke="black" stroke-width="2" marker-start="url(#arrow)"></line><line x1="675" y1="275" x2="110" y2="370" stroke="black" stroke-width="2" marker-start="url(#arrow)"></line><line x1="675" y1="275" x2="540" y2="550" stroke="black" stroke-width="2" marker-start="url(#arrow)"></line><rect x="450" y="60" width="200" height="40" style="fill: red;"></rect><rect x="665" y="60" width="200" height="40" style="fill: red;"></rect><rect x="880" y="60" width="200" height="40" style="fill: red;"></rect><rect x="1095" y="60" width="200" height="40" style="fill: red;"></rect><text style="fill: black; font-size: 14px;" dy=".35em" x="460" y="70">type : "aws_instance"</text><text style="fill: black; font-size: 14px;" dy=".35em" x="675" y="70">type : "aws_volume_attachment"</text><text style="fill: black; font-size: 14px;" dy=".35em" x="890" y="70">type : "aws_ebs_volume"</text><text style="fill: black; font-size: 14px;" dy=".35em" x="1105" y="70">type : "aws_security_group"</text><text style="fill: black; font-size: 14px;" dy=".35em" x="460" y="90">name : "srv1"</text><text style="fill: black; font-size: 14px;" dy=".35em" x="675" y="90">name : "ebs_att"</text><text style="fill: black; font-size: 14px;" dy=".35em" x="890" y="90">name : "www_srv1"</text><text style="fill: black; font-size: 14px;" dy=".35em" x="1105" y="90">name : "sg_serveurs"</text><line x1="650" y1="80" x2="1095" y2="80" stroke="black" stroke-width="2" marker-start="url(#arrow)"></line><line x1="650" y1="80" x2="665" y2="80" stroke="black" stroke-width="2" marker-start="url(#arrow)"></line><line x1="880" y1="80" x2="865" y2="80" stroke="black" stroke-width="2" marker-start="url(#arrow)"></line></svg>